<?xml version="1.0" standalone="no"?>
<!DOCTYPE svg PUBLIC "-//W3C//DTD SVG 20010904//EN"
 "http://www.w3.org/TR/2001/REC-SVG-20010904/DTD/svg10.dtd">
<svg version="1.0" xmlns="http://www.w3.org/2000/svg"
 width="768.000000pt" height="768.000000pt" viewBox="0 0 768.000000 768.000000"
 preserveAspectRatio="xMidYMid meet">

<g transform="translate(0.000000,768.000000) scale(0.100000,-0.100000)"
fill="#000000" stroke="none">
<path d="M3799 6936 c-18 -19 -36 -33 -40 -30 -4 2 -12 -3 -19 -11 -7 -8 -18
-15 -24 -15 -7 0 -30 -19 -51 -42 -32 -34 -34 -39 -13 -25 38 24 46 21 20 -6
-17 -17 -18 -24 -8 -24 8 0 14 5 13 11 -1 5 15 10 36 11 21 1 42 7 47 14 4 8
13 10 20 6 6 -4 20 1 31 11 10 9 30 19 44 20 14 1 33 5 44 9 12 3 21 0 25 -10
3 -9 0 -15 -9 -15 -21 0 -18 -13 6 -28 14 -9 19 -10 14 -2 -5 8 -2 10 11 7 11
-4 31 -9 46 -12 27 -7 80 -55 60 -55 -20 0 -13 -22 8 -27 11 -3 20 -9 20 -13
0 -12 59 -70 71 -70 5 0 9 -9 9 -20 0 -11 6 -20 14 -20 15 0 42 -28 34 -35 -9
-9 -103 -12 -120 -3 -10 5 -15 15 -12 23 4 8 1 15 -6 15 -6 0 -8 -4 -5 -10 3
-5 2 -10 -4 -10 -20 0 -21 19 -1 25 11 3 20 10 20 15 0 15 -38 22 -59 11 -21
-12 -35 7 -25 34 4 9 0 15 -10 15 -9 0 -16 5 -16 11 0 6 7 9 15 5 8 -3 15 -1
15 3 0 16 -24 18 -38 4 -11 -11 -12 -17 -2 -29 27 -32 1 -22 -34 13 -20 21
-36 32 -36 25 0 -10 -4 -10 -20 0 -16 10 -22 10 -32 0 -11 -11 -10 -12 3 -7
12 4 57 -26 145 -99 71 -58 144 -115 162 -128 18 -13 74 -52 125 -88 98 -70
233 -155 332 -210 117 -65 329 -170 342 -170 8 0 11 -4 8 -10 -3 -6 1 -7 9 -4
9 3 16 2 16 -4 0 -9 27 -20 71 -28 26 -5 69 -31 63 -37 -3 -3 3 -3 15 0 12 3
21 1 21 -5 0 -5 18 -12 40 -16 22 -3 40 -10 40 -15 0 -5 20 -14 44 -20 40 -10
72 -31 47 -31 -5 0 -12 4 -16 9 -3 6 -13 9 -23 9 -15 0 -70 17 -137 43 -11 4
-33 10 -48 14 -17 3 -25 10 -21 17 5 7 2 9 -9 5 -8 -3 -37 4 -64 17 -26 13
-73 31 -103 42 -30 10 -57 21 -60 24 -3 4 -30 16 -60 29 -30 13 -101 48 -158
78 -57 30 -106 53 -108 50 -5 -5 36 -27 234 -126 73 -37 131 -69 128 -71 -2
-3 7 -6 20 -6 13 -1 41 -11 61 -21 21 -11 55 -26 77 -33 29 -9 35 -15 25 -22
-10 -7 -7 -8 10 -4 21 4 109 -30 99 -39 -7 -7 -112 26 -129 41 -10 9 -25 14
-34 11 -8 -4 -15 -3 -15 2 0 5 -21 16 -47 24 -84 28 -203 83 -195 91 4 4 0 7
-8 5 -8 -1 -37 9 -65 23 -229 117 -474 273 -669 428 -71 55 -136 105 -146 110
-13 7 -45 -12 -146 -88 -226 -170 -443 -307 -734 -465 -200 -108 -537 -239
-760 -296 -93 -24 -311 -61 -355 -61 l-33 0 -8 -167 c-16 -298 -10 -955 9
-1168 35 -373 98 -762 169 -1040 17 -66 31 -127 31 -135 2 -44 -4 -71 -13 -65
-6 4 -8 16 -4 28 15 47 15 51 1 28 -8 -13 -17 -19 -20 -14 -9 15 4 54 16 46 6
-3 7 -1 3 6 -4 6 -11 9 -16 6 -10 -6 -30 48 -31 89 l-2 31 -7 -35 c-7 -31 -8
-28 -9 25 -2 46 -5 55 -12 40 -7 -15 -8 -9 -4 20 4 31 3 37 -5 25 -9 -12 -10
-9 -6 13 4 15 2 27 -2 27 -5 0 -14 33 -20 73 -7 39 -19 108 -27 152 -37 187
-65 370 -79 520 -22 223 -23 227 -24 175 -1 -25 3 -85 8 -135 6 -49 15 -133
20 -185 6 -52 15 -115 20 -140 6 -25 24 -126 40 -225 89 -527 118 -632 258
-924 27 -56 45 -101 41 -101 -4 0 -15 17 -25 38 -9 20 -16 37 -14 37 2 0 -15
35 -38 78 -23 43 -42 82 -42 88 0 6 -11 35 -25 64 -38 84 -121 380 -146 520
-6 33 -14 69 -19 80 -19 47 -60 278 -100 575 -29 206 -50 502 -52 698 0 50 -4
92 -8 92 -10 0 -40 -35 -40 -48 0 -6 -12 -20 -26 -31 -20 -16 -28 -33 -33 -73
l-7 -53 -8 73 c-4 40 -4 82 -1 95 5 16 4 18 -3 8 -20 -28 -22 68 -12 419 9
321 18 485 36 638 l6 53 51 -6 c66 -8 309 11 452 35 61 10 169 38 240 61 138
44 141 46 133 54 -5 5 -51 -9 -113 -35 -11 -5 -60 -18 -110 -30 -49 -12 -99
-23 -110 -26 -67 -16 -253 -35 -397 -41 l-167 -6 -5 -41 c-19 -147 -43 -933
-41 -1336 0 -57 -1 -97 -3 -87 -2 9 -8 17 -14 17 -7 0 -9 15 -5 39 4 30 2 38
-8 35 -7 -3 -16 -15 -19 -27 -6 -24 19 -433 34 -549 6 -43 14 -111 20 -150 5
-40 14 -107 19 -149 9 -68 22 -129 51 -249 4 -19 13 -66 20 -105 6 -38 20 -99
30 -135 10 -36 23 -85 30 -110 28 -115 123 -378 163 -455 12 -22 22 -42 22
-45 13 -48 104 -220 165 -310 21 -30 54 -80 73 -110 72 -110 208 -268 344
-400 150 -146 284 -267 346 -315 206 -157 522 -376 598 -414 25 -12 68 -40 97
-61 45 -35 246 -150 313 -180 25 -11 50 1 379 190 194 112 390 230 436 264
195 142 224 164 285 216 135 116 488 478 561 575 75 100 172 244 216 320 27
49 131 257 152 305 57 137 77 190 116 305 25 72 54 164 66 205 11 41 27 98 35
125 8 28 18 73 23 100 6 28 15 70 20 95 10 42 14 68 41 223 6 34 15 98 20 142
5 44 15 114 21 155 7 49 12 396 14 984 4 807 3 912 -11 932 -14 22 -22 24
-108 25 -134 1 -316 15 -363 27 -22 6 -60 13 -85 16 -62 7 -162 27 -174 35 -5
4 -23 8 -40 10 -16 1 -34 7 -39 12 -6 5 -20 9 -32 9 -12 0 -24 4 -26 8 -4 10
-119 52 -142 52 -9 0 -16 5 -16 10 0 6 -9 10 -19 10 -11 0 -23 5 -26 10 -3 6
-17 10 -30 10 -13 0 -27 5 -30 10 -3 6 -15 10 -26 10 -13 0 -18 4 -13 12 5 7
2 9 -9 5 -8 -3 -21 1 -27 8 -7 8 -16 13 -20 10 -4 -3 -13 2 -20 10 -6 7 -17
12 -24 9 -8 -3 -16 2 -19 10 -4 9 -16 16 -27 16 -11 0 -20 4 -20 10 0 5 -7 6
-17 3 -11 -4 -14 -3 -9 5 6 11 -6 17 -27 13 -4 -1 -10 6 -13 14 -4 10 -13 13
-25 10 -13 -5 -19 -1 -19 10 0 11 -5 15 -15 11 -9 -3 -18 1 -21 9 -4 8 -13 15
-21 15 -9 0 -23 8 -32 18 -21 23 -70 44 -83 36 -6 -4 -8 -3 -5 3 5 9 -25 43
-39 43 -3 0 -19 9 -34 20 -16 11 -35 17 -43 14 -8 -3 -18 -1 -22 5 -4 7 0 8
11 4 12 -4 15 -3 10 6 -4 6 -16 9 -25 6 -11 -3 -24 2 -32 12 -12 15 -12 16 1
9 8 -4 6 -1 -4 8 -10 8 -23 13 -28 10 -9 -6 -60 30 -58 41 1 4 -2 10 -6 13 -4
4 -4 1 0 -5 4 -7 3 -13 -2 -13 -11 0 -30 20 -32 35 -1 6 -16 19 -33 30 -17 11
-28 14 -23 7 17 -28 -5 -15 -173 97 -69 46 -139 95 -154 108 -16 12 -32 23
-36 23 -5 0 -23 -15 -42 -34z m191 -83 c228 -161 411 -286 457 -314 24 -14 49
-31 56 -38 7 -7 -12 1 -42 19 -82 48 -189 119 -196 130 -3 5 -13 10 -21 10 -9
0 -12 -5 -8 -11 5 -8 1 -8 -13 0 -14 7 -23 7 -31 -1 -9 -9 -15 -9 -24 1 -11
10 -10 11 5 6 9 -4 17 -3 17 3 0 5 -7 12 -15 16 -8 3 -15 9 -14 13 5 33 -2 43
-26 37 -15 -4 -25 -2 -25 5 0 6 -8 8 -17 4 -15 -5 -15 -3 2 11 16 15 17 17 3
12 -10 -3 -21 0 -25 7 -21 33 -59 54 -100 56 -7 1 -13 6 -13 12 0 5 5 7 10 4
18 -11 11 1 -12 21 -12 10 -18 13 -14 7 4 -7 3 -13 -2 -13 -5 0 -12 9 -15 21
-4 13 -10 18 -18 13 -7 -4 -10 -3 -6 3 10 16 -37 43 -62 36 -11 -3 -18 -9 -15
-14 3 -5 -3 -6 -12 -2 -13 5 -15 3 -9 -8 4 -8 5 -11 0 -7 -10 9 -50 -18 -50
-35 0 -6 -9 -12 -20 -12 -11 0 -18 -4 -15 -10 3 -5 12 -8 20 -6 8 1 11 -1 7
-6 -13 -13 -55 -10 -53 4 2 10 142 122 154 123 2 0 66 -44 142 -97z m-110 42
c0 -2 -9 -3 -19 -2 -11 0 -18 5 -15 9 4 6 34 0 34 -7z m80 -50 c0 -2 -10 -9
-22 -15 -22 -11 -22 -10 -4 4 21 17 26 19 26 11z m284 -130 c11 -8 15 -15 10
-15 -6 0 -19 7 -30 15 -10 8 -14 14 -9 14 6 0 19 -6 29 -14z m-329 -25 c3 -6
-1 -7 -9 -4 -18 7 -21 14 -7 14 6 0 13 -4 16 -10z m142 -66 c-3 -3 -12 -4 -19
-1 -8 3 -5 6 6 6 11 1 17 -2 13 -5z m223 -44 c0 -5 -5 -10 -11 -10 -5 0 -7 5
-4 10 3 6 8 10 11 10 2 0 4 -4 4 -10z m-313 -89 c118 -95 284 -213 373 -266
36 -21 79 -48 95 -60 60 -44 268 -156 410 -221 50 -23 89 -46 88 -51 -1 -5 8
-9 20 -8 12 1 27 -1 32 -5 6 -4 28 -13 50 -20 22 -7 48 -19 57 -27 9 -8 22
-12 29 -7 7 4 10 3 6 -3 -8 -13 14 -23 48 -23 27 0 41 -15 23 -24 -7 -4 10 -4
37 -2 34 3 43 2 30 -4 l-20 -9 20 -2 c11 -1 25 -3 32 -3 6 -1 15 -5 19 -9 4
-4 14 -7 21 -7 24 0 41 -24 32 -45 -14 -37 -10 -95 6 -95 13 0 15 -42 15 -320
l0 -320 -24 0 c-17 0 -26 7 -30 25 -4 15 -16 27 -31 31 -14 3 -25 10 -25 15 0
5 -18 9 -40 9 -25 0 -40 5 -40 13 0 6 -14 18 -30 25 -17 8 -37 20 -45 29 -13
12 -14 11 -11 -14 2 -15 1 -20 -1 -11 -6 22 -33 46 -33 28 0 -10 -3 -10 -14
-1 -11 9 -15 9 -18 0 -2 -6 -14 0 -28 16 -14 15 -46 50 -73 77 -26 27 -45 54
-41 59 3 5 2 8 -3 7 -14 -5 -93 64 -86 76 3 6 3 8 -1 4 -4 -3 -56 25 -114 64
-172 113 -313 176 -499 222 -209 53 -423 56 -653 10 -244 -49 -536 -202 -713
-374 -61 -59 -79 -82 -69 -88 10 -7 4 -22 -29 -66 -32 -43 -45 -53 -55 -45
-10 8 -6 20 18 55 18 24 29 46 27 49 -9 8 -77 -98 -124 -192 -50 -102 -50
-103 -33 -103 6 0 9 3 5 6 -8 8 58 139 83 166 35 38 30 -1 -12 -89 -37 -75
-47 -88 -70 -91 -23 -3 -29 -11 -42 -55 -9 -29 -22 -73 -30 -98 -13 -41 -12
-48 1 -62 13 -13 14 -23 4 -61 -6 -25 -11 -55 -10 -68 0 -13 8 6 16 42 15 67
33 101 33 64 0 -33 -41 -208 -49 -214 -5 -3 -14 -66 -20 -140 -6 -74 -14 -146
-18 -160 -6 -22 -4 -23 9 -12 14 11 16 3 22 -70 11 -125 6 -206 -14 -231 -17
-20 -18 -20 -23 -1 -3 10 -7 78 -9 151 l-3 132 -29 -17 c-38 -22 -50 -58 -76
-237 -24 -157 -25 -325 -2 -333 7 -2 12 -8 12 -13 0 -6 -4 -7 -10 -4 -11 7
-11 8 -13 -63 -1 -29 -7 -56 -14 -60 -16 -10 -43 -166 -50 -294 -3 -60 -10
-108 -14 -108 -5 0 -9 -19 -9 -42 0 -24 -7 -64 -15 -90 -14 -49 -12 -66 5 -25
5 12 9 15 9 7 0 -8 -3 -21 -8 -29 -10 -16 13 -71 29 -71 6 0 10 -7 10 -16 0
-39 -53 41 -65 97 -4 19 -24 57 -44 81 -7 10 -10 25 -7 35 4 9 4 14 0 10 -10
-10 -46 73 -39 90 3 9 0 11 -7 7 -7 -5 -9 -2 -5 8 3 9 0 24 -7 34 -28 39 -110
355 -155 594 -28 150 -78 504 -91 645 -21 226 -29 623 -19 975 6 190 11 354
13 365 2 15 12 21 42 23 142 10 404 72 621 146 319 110 744 334 1068 564 50
36 110 79 134 96 24 17 65 48 90 68 25 21 51 37 58 38 7 0 56 -35 110 -79z
m166 47 c4 -10 7 -10 15 0 10 15 38 7 46 -14 3 -9 -1 -14 -14 -14 -11 0 -20 5
-20 11 0 5 -4 8 -9 5 -12 -8 -41 3 -41 15 0 13 18 11 23 -3z m181 -73 c-6 -16
-24 -21 -24 -7 0 11 11 22 21 22 5 0 6 -7 3 -15z m261 -44 c3 -5 2 -12 -3 -15
-5 -3 -9 1 -9 9 0 17 3 19 12 6z m-204 -30 c-11 -7 -9 -11 9 -21 12 -6 19 -14
16 -17 -3 -3 -17 2 -31 11 -27 18 -25 36 3 36 14 0 14 -2 3 -9z m59 -1 c0 -5
-7 -10 -15 -10 -8 0 -15 5 -15 10 0 6 7 10 15 10 8 0 15 -4 15 -10z m90 -94
c0 -3 -4 -8 -10 -11 -5 -3 -10 -1 -10 4 0 6 5 11 10 11 6 0 10 -2 10 -4z
m1643 -473 c3 -68 2 -123 -3 -123 -11 0 -20 83 -19 189 0 131 15 88 22 -66z
m-906 11 c-3 -3 -12 -4 -19 -1 -8 3 -5 6 6 6 11 1 17 -2 13 -5z m28 -14 c-3
-5 -1 -10 6 -10 7 0 10 -3 6 -6 -9 -9 -28 6 -22 17 4 5 8 9 11 9 3 0 2 -4 -1
-10z m148 -117 c-7 -2 -21 -2 -30 0 -10 3 -4 5 12 5 17 0 24 -2 18 -5z m521
-34 c10 -50 7 -790 -4 -1032 -11 -240 -39 -510 -70 -677 -11 -58 -33 -176 -49
-264 -16 -87 -34 -163 -40 -169 -8 -8 -8 -1 -1 24 19 65 89 505 109 684 32
287 43 586 40 1043 -2 232 -1 422 2 422 4 0 9 -14 13 -31z m43 -21 c-3 -7 -5
-2 -5 12 0 14 2 19 5 13 2 -7 2 -19 0 -25z m-2157 -9 c-85 -4 -184 -12 -220
-18 -85 -14 -256 -56 -300 -74 -19 -8 -44 -17 -55 -21 -16 -6 -17 -9 -5 -17
12 -8 10 -9 -7 -4 -21 6 -101 -27 -114 -47 -3 -5 -10 -10 -15 -10 -17 -1 -112
-66 -178 -122 -36 -31 -71 -56 -78 -56 -9 0 -9 -3 2 -11 12 -8 11 -9 -5 -7
-12 2 -19 -2 -17 -10 1 -8 -2 -11 -7 -8 -5 3 -19 -6 -30 -21 -11 -16 -21 -22
-21 -14 0 23 120 129 230 203 187 125 386 205 565 227 136 17 150 18 285 18
l125 0 -155 -8z m2078 -147 c1 -86 -2 -326 -8 -532 -13 -472 -26 -622 -81
-955 -32 -198 -80 -437 -86 -431 -2 2 10 80 27 175 46 264 64 388 84 591 26
266 36 530 36 917 -1 205 2 378 5 383 16 26 20 -2 23 -148z m-2683 -2 c-3 -5
-12 -10 -18 -10 -7 0 -6 4 3 10 19 12 23 12 15 0z m2774 -405 c0 -207 -4 -373
-9 -370 -9 6 -14 703 -4 728 3 9 8 17 10 17 2 0 3 -169 3 -375z m-1058 40 c17
-35 27 -70 23 -76 -4 -8 -3 -9 4 -5 16 10 15 -7 0 -23 -11 -11 -10 -13 3 -9
12 5 14 0 11 -24 -3 -21 -1 -29 6 -24 6 4 8 14 5 24 -8 22 1 13 16 -15 10 -19
9 -22 -4 -17 -17 7 -19 -4 -5 -26 9 -13 10 -13 10 0 1 12 3 11 11 -2 6 -11 6
-24 1 -34 -6 -11 -16 2 -41 58 -39 85 -60 129 -89 179 -15 27 -17 40 -9 48 20
20 27 12 58 -54z m-1014 49 c-3 -3 -12 -4 -19 -1 -8 3 -5 6 6 6 11 1 17 -2 13
-5z m48 -28 c39 -9 88 -16 110 -16 23 0 46 -5 53 -12 9 -9 12 -9 12 1 0 11 11
12 48 6 26 -4 61 -7 79 -6 18 0 35 -4 38 -9 3 -6 20 -10 36 -10 17 0 47 -9 67
-20 20 -10 65 -27 100 -36 42 -12 58 -21 50 -27 -8 -5 1 -7 25 -3 20 2 35 1
32 -3 -2 -5 21 -16 53 -25 32 -9 67 -23 78 -31 10 -8 27 -15 37 -15 21 0 59
-21 70 -38 5 -7 31 -42 57 -78 27 -35 56 -87 65 -116 16 -55 19 -86 5 -53 l-9
20 -1 -20 -1 -20 -9 20 c-8 20 -9 20 -9 0 -1 -18 -2 -18 -18 4 -51 66 -108
131 -115 131 -4 0 -17 8 -27 18 -10 9 -34 30 -52 46 l-33 30 -7 -25 c-4 -13
-5 2 -3 33 2 45 0 56 -11 52 -7 -3 -46 4 -87 16 -40 12 -126 35 -190 53 -64
17 -115 34 -112 39 3 4 -2 5 -10 2 -8 -3 -50 4 -92 16 -43 11 -146 36 -228 55
l-150 33 -116 -29 c-251 -65 -353 -93 -535 -146 -104 -30 -193 -58 -196 -62
-3 -3 0 -22 7 -41 12 -32 13 -33 13 -9 1 15 7 31 14 37 38 32 740 222 819 222
43 0 251 -52 592 -148 l238 -67 -6 -140 c-4 -77 -12 -171 -17 -210 -5 -38 -14
-101 -19 -140 -6 -38 -19 -187 -30 -330 -22 -287 -41 -434 -72 -570 -12 -49
-23 -107 -26 -129 -3 -28 -7 -35 -14 -25 -7 10 -8 9 -4 -6 3 -11 -3 -72 -13
-135 l-19 -115 -2 65 c-3 60 -3 62 -10 25 -4 -22 -8 -31 -10 -20 -3 31 0 77
10 115 8 31 24 167 60 513 5 53 15 141 21 196 7 54 10 110 7 125 -3 14 -1 26
3 26 5 0 9 19 9 43 0 23 6 105 14 182 8 77 17 176 21 220 3 44 6 87 7 95 1 8
0 26 -2 40 -2 20 -4 17 -11 -15 -5 -22 -11 -62 -13 -90 -2 -27 -7 -63 -12 -80
-4 -16 -8 -63 -8 -103 -1 -39 -2 -68 -4 -62 -2 5 -7 10 -12 10 -10 0 -18 -46
-31 -175 -5 -55 -16 -111 -23 -125 -8 -14 -17 -41 -20 -60 -16 -79 -30 -136
-38 -145 -4 -5 -8 -24 -8 -41 0 -23 -9 -42 -31 -63 -17 -17 -34 -31 -39 -31
-5 0 -11 -10 -13 -22 -2 -13 -5 5 -6 40 0 34 -5 62 -11 62 -5 0 -9 41 -9 98 1
105 -2 141 -21 272 -18 122 -22 130 -67 130 -75 1 -250 57 -316 101 -31 20
-31 20 3 -10 19 -17 40 -31 45 -31 6 0 19 -8 30 -16 19 -15 19 -15 -9 -8 -22
5 -27 4 -21 -5 8 -14 -35 6 -70 32 -17 13 -25 11 -82 -25 -74 -47 -151 -75
-228 -84 -31 -4 -58 -12 -60 -18 -2 -6 -8 -110 -13 -231 -6 -121 -13 -228 -17
-238 -13 -31 -25 1 -26 73 -1 42 -5 18 -10 -68 -7 -105 -6 -149 6 -204 16 -80
73 -208 92 -208 7 0 10 -7 7 -15 -4 -8 -2 -15 3 -15 5 0 29 -18 53 -40 24 -22
49 -40 57 -40 7 0 13 -3 13 -7 0 -5 16 -26 35 -47 19 -22 35 -43 35 -47 0 -19
-55 -49 -91 -49 -22 0 -39 -4 -39 -10 0 -5 -18 -10 -40 -10 -22 0 -40 5 -40
10 0 6 -20 10 -44 10 -45 0 -128 29 -140 49 -4 6 -22 11 -39 11 -25 0 -35 6
-44 26 -6 14 -9 33 -6 41 5 12 3 14 -7 8 -7 -5 -11 -4 -8 1 3 5 0 41 -8 79
-25 129 -65 502 -119 1105 -14 151 -28 300 -31 331 l-6 56 83 26 c223 68 628
167 686 167 66 0 632 -143 695 -176 30 -16 83 -16 83 0 0 11 -55 28 -220 67
-71 16 -224 53 -340 81 l-210 51 -85 -17 c-162 -32 -659 -167 -692 -187 -9 -6
-5 -105 20 -456 27 -374 35 -549 31 -708 -1 -11 2 -45 6 -75 5 -42 4 -52 -5
-40 -9 12 -10 7 -4 -20 3 -19 3 -32 -1 -28 -7 6 -17 83 -30 214 -1 17 -5 44
-9 60 -10 49 -35 291 -46 443 -10 129 -13 146 -33 162 -12 10 -28 18 -35 19
-7 0 -10 4 -7 10 4 6 -5 8 -22 6 -15 -2 -20 -1 -10 1 9 2 15 8 12 13 -3 5 0
12 6 16 8 4 9 3 5 -4 -4 -7 -4 -12 1 -12 13 0 28 14 29 28 1 6 2 27 3 45 2 27
4 29 11 12 14 -32 12 27 -6 217 -10 98 -13 173 -8 178 12 11 213 73 357 110
62 16 150 40 197 54 246 70 307 75 455 42z m-2 17 c-7 -2 -19 -2 -25 0 -7 3
-2 5 12 5 14 0 19 -2 13 -5z m-1097 -135 c-3 -13 -6 -28 -6 -34 0 -6 -9 -21
-20 -34 -11 -13 -20 -32 -20 -42 0 -12 -4 -17 -12 -12 -7 5 -9 2 -6 -8 4 -8
-2 -22 -13 -32 -28 -23 -34 -20 -14 10 9 14 23 49 32 77 16 56 40 97 55 97 6
0 8 -10 4 -22z m-100 -200 c4 -7 3 -10 -1 -5 -5 4 -18 -1 -29 -10 -21 -18 -21
-18 -2 5 22 26 23 26 32 10z m3201 -235 c-2 -21 -4 -6 -4 32 0 39 2 55 4 38 2
-18 2 -50 0 -70z m-833 -30 c9 -54 19 -108 22 -120 2 -13 0 -23 -6 -23 -5 0
-10 12 -10 28 0 15 -9 69 -19 120 -10 50 -15 92 -11 92 3 0 14 -44 24 -97z
m-2584 22 c-7 -9 -12 -39 -11 -70 0 -31 -3 -55 -9 -55 -6 0 -1 -9 10 -20 15
-15 19 -28 14 -48 -10 -40 -14 -44 -32 -30 -9 7 -13 8 -9 2 3 -6 2 -24 -3 -40
l-8 -29 -1 28 c-1 16 -5 26 -11 22 -5 -3 -10 3 -10 14 0 12 5 21 10 21 6 0 9
3 8 8 -5 22 15 111 25 105 6 -4 8 2 4 16 -7 27 10 91 25 91 7 0 6 -5 -2 -15z
m-1033 -142 c-3 -10 -5 -4 -5 12 0 17 2 24 5 18 2 -7 2 -21 0 -30z m1050 -95
c-3 -7 -5 -2 -5 12 0 14 2 19 5 13 2 -7 2 -19 0 -25z m1328 -7 c77 -49 192
-85 246 -78 l39 5 -2 -256 c-2 -211 -3 -233 -8 -122 -4 100 -7 125 -12 95 -4
-22 -8 -56 -8 -75 -1 -44 -20 -70 -53 -70 -22 0 -28 7 -42 50 -9 27 -16 64
-15 82 1 18 2 51 1 74 l-1 41 -107 1 c-98 2 -106 0 -89 -13 16 -12 17 -15 4
-15 -17 0 -28 -20 -28 -53 0 -12 -10 -38 -21 -57 -19 -31 -19 -33 -3 -18 17
15 20 15 34 0 13 -14 12 -15 -3 -9 -9 3 -19 2 -22 -3 -4 -6 4 -11 17 -11 22
-2 22 -2 -2 -7 -23 -4 -24 -5 -5 -13 18 -7 17 -8 -7 -8 -20 -1 -26 -5 -22 -16
5 -11 1 -14 -12 -9 -15 4 -14 1 5 -15 23 -21 22 -36 -2 -36 -7 0 -13 -8 -15
-19 -3 -13 0 -16 9 -11 8 5 10 4 5 -4 -10 -16 -28 -3 -24 17 2 10 -3 22 -12
29 -8 6 -12 14 -9 18 4 3 14 -1 22 -10 9 -8 18 -11 22 -6 3 5 -4 12 -15 16
-11 4 -18 10 -15 15 3 5 -9 7 -27 5 -17 -3 -35 -10 -40 -17 -5 -9 -8 -7 -9 7
l0 20 -9 -20 c-7 -18 -8 -17 -15 10 -13 56 -15 50 -9 -25 4 -53 12 -87 29
-115 23 -39 140 -155 157 -155 5 0 6 -5 3 -10 -4 -7 3 -8 21 -4 l27 7 -29 -39
c-16 -21 -35 -44 -43 -50 -8 -6 -11 -16 -7 -22 4 -7 2 -12 -3 -12 -6 0 -11 4
-11 9 0 12 -56 -3 -76 -19 -10 -9 -26 -2 -73 34 -33 25 -73 62 -89 82 -55 66
-59 110 -54 520 l2 210 78 12 c55 9 101 24 162 55 47 24 89 45 94 45 5 1 37
-16 71 -37z m1242 -43 c-2 -13 -4 -3 -4 22 0 25 2 35 4 23 2 -13 2 -33 0 -45z
m-630 20 c-3 -7 -5 -2 -5 12 0 14 2 19 5 13 2 -7 2 -19 0 -25z m-9 -83 l0 -30
-8 30 c-4 17 -8 44 -8 60 l0 30 8 -30 c4 -16 8 -43 8 -60z m-1798 35 c0 -5 -4
-10 -9 -10 -5 0 -23 -3 -42 -7 -30 -6 -31 -5 -18 10 15 18 69 23 69 7z m-161
-32 c-9 -6 -5 -7 12 -3 41 10 51 -12 47 -107 -1 -46 -2 -143 0 -215 l2 -133
25 0 c14 0 25 -5 25 -11 0 -5 -4 -7 -10 -4 -5 3 -10 1 -10 -5 0 -8 -6 -7 -21
1 -14 7 -19 7 -15 0 6 -10 -23 -31 -43 -31 -20 0 -34 111 -36 299 -2 122 1
189 7 180 7 -11 9 -9 7 6 -3 35 1 46 12 39 8 -4 7 -9 -2 -16z m216 -14 c0 -16
4 -32 9 -35 4 -4 -3 -6 -17 -6 -22 0 -24 3 -22 36 3 45 2 44 17 39 7 -3 13
-18 13 -34z m140 19 c-8 -22 -12 -82 -5 -81 18 1 19 -5 5 -32 -8 -16 -23 -34
-33 -39 -16 -9 -18 -3 -20 70 -1 44 0 85 3 90 4 5 18 9 32 9 20 0 24 -4 18
-17z m-198 1 c-3 -3 -12 -4 -19 -1 -8 3 -5 6 6 6 11 1 17 -2 13 -5z m-44 -11
c-7 -2 -19 -2 -25 0 -7 3 -2 5 12 5 14 0 19 -2 13 -5z m47 -32 c0 -14 -9 -20
-37 -24 -47 -5 -53 -2 -46 23 8 29 83 30 83 1z m0 -51 c0 -20 -5 -21 -67 -24
-27 -1 -21 27 7 35 45 13 60 10 60 -11z m38 0 c-7 -11 -15 -15 -17 -9 -2 6 3
15 10 20 20 12 21 11 7 -11z m1739 -12 c-3 -8 -6 -5 -6 6 -1 11 2 17 5 13 3
-3 4 -12 1 -19z m650 -231 c-1 -45 -3 -5 -3 88 0 94 2 130 3 82 2 -48 2 -125
0 -170z m-2427 183 c0 -17 -7 -20 -39 -20 -40 0 -57 11 -46 30 3 6 24 10 46
10 32 0 39 -3 39 -20z m198 -29 c-15 -25 -40 -37 -31 -15 3 7 9 14 15 14 5 0
7 4 4 9 -4 5 0 11 6 14 19 7 21 1 6 -22z m2319 -8 c-3 -10 -5 -4 -5 12 0 17 2
24 5 18 2 -7 2 -21 0 -30z m-1200 -15 c-3 -7 -5 -2 -5 12 0 14 2 19 5 13 2 -7
2 -19 0 -25z m-1317 11 c0 -8 -58 -39 -75 -39 -3 0 -5 11 -5 25 0 23 4 25 40
25 22 0 40 -5 40 -11z m1160 -34 c7 -9 8 -15 2 -15 -5 0 -12 7 -16 15 -3 8 -4
15 -2 15 2 0 9 -7 16 -15z m-1157 -35 c6 -23 4 -25 -45 -34 -36 -6 -38 -5 -38
18 0 26 11 34 51 35 19 1 28 -5 32 -19z m227 1 c-14 -26 -25 -32 -45 -24 -15
5 -15 8 6 24 33 25 53 25 39 0z m2277 -73 c-2 -18 -4 -4 -4 32 0 36 2 50 4 33
2 -18 2 -48 0 -65z m-1347 72 c-8 -5 -19 -10 -25 -10 -5 0 -3 5 5 10 8 5 20
10 25 10 6 0 3 -5 -5 -10z m-5 -40 c3 -6 -1 -7 -9 -4 -18 7 -21 14 -7 14 6 0
13 -4 16 -10z m-1145 -34 c0 -16 -21 -26 -55 -26 -26 0 -40 14 -30 30 10 16
85 13 85 -4z m241 -47 c-13 -10 -19 -19 -15 -19 5 0 1 -5 -9 -11 -10 -6 -21
-8 -24 -5 -4 3 -1 6 6 6 7 0 10 4 6 9 -3 5 3 12 14 16 11 3 22 13 25 22 4 9
10 13 14 9 4 -4 -4 -16 -17 -27z m1101 -46 c-5 -7 -8 5 -9 30 -1 38 0 39 8 13
4 -16 5 -35 1 -43z m-1374 40 c-10 -2 -26 -2 -35 0 -10 3 -2 5 17 5 19 0 27
-2 18 -5z m1046 -17 c-3 -8 0 -25 6 -38 11 -23 11 -23 -6 -3 l-17 20 8 -20
c12 -35 14 -56 4 -50 -12 8 -12 -8 1 -23 5 -7 2 -6 -7 2 -14 13 -14 17 -2 32
12 16 12 17 -3 12 -10 -4 -19 -1 -22 8 -3 9 -1 12 4 9 6 -3 10 -1 10 4 0 6 -4
11 -10 11 -5 0 -10 4 -10 10 0 5 7 7 15 4 8 -4 15 -1 15 5 0 6 -6 11 -12 12
-10 0 8 11 29 18 1 1 0 -5 -3 -13z m-1018 -13 c-11 -11 -77 -13 -71 -2 4 5 22
9 42 9 20 0 33 -3 29 -7z m988 -97 c9 -14 14 -26 11 -26 -13 0 -45 68 -44 95
1 28 2 28 8 -7 4 -20 15 -48 25 -62z m343 32 c-3 -8 -6 -5 -6 6 -1 11 2 17 5
13 3 -3 4 -12 1 -19z m-240 -20 c-3 -8 -6 -5 -6 6 -1 11 2 17 5 13 3 -3 4 -12
1 -19z m-17 6 c0 -8 -19 -13 -24 -6 -3 5 1 9 9 9 8 0 15 -2 15 -3z m-2173 -46
c-3 -8 -6 -5 -6 6 -1 11 2 17 5 13 3 -3 4 -12 1 -19z m2144 -25 l24 -26 -27
19 c-15 10 -28 22 -28 27 0 12 5 8 31 -20z m26 21 c-3 -3 -12 -4 -19 -1 -8 3
-5 6 6 6 11 1 17 -2 13 -5z m384 -67 c-8 -46 -22 -84 -49 -141 -3 -5 1 -5 8
-1 8 5 11 4 6 -3 -4 -6 -12 -9 -19 -6 -7 2 -30 -13 -52 -35 -23 -23 -45 -37
-54 -33 -10 4 -12 1 -6 -9 4 -8 5 -11 1 -8 -4 4 -41 -11 -82 -32 -41 -22 -80
-39 -87 -39 -7 0 -25 12 -42 28 -16 15 -43 33 -60 40 -29 13 -29 14 -10 28 10
8 26 14 34 14 21 -1 56 -28 48 -37 -4 -4 -13 -1 -19 5 -7 7 -18 12 -26 12 -9
0 -2 -13 19 -34 23 -24 36 -31 41 -23 4 7 8 8 8 3 0 -5 7 -3 15 4 8 6 19 9 25
5 15 -9 50 23 44 40 -3 7 -1 16 4 19 5 3 8 -6 6 -20 -3 -28 2 -26 61 33 22 22
29 35 22 42 -14 14 -18 43 -6 35 5 -3 7 -9 4 -14 -3 -5 5 -16 17 -24 20 -14
24 -14 40 0 9 9 16 21 15 28 -1 6 4 10 11 8 19 -4 69 83 77 134 3 25 9 44 11
41 3 -3 1 -30 -5 -60z m-361 8 c11 -13 10 -14 -4 -9 -9 3 -16 10 -16 15 0 13
6 11 20 -6z m-1090 -15 c-36 -11 -52 -11 -45 0 3 6 21 10 38 9 31 -1 31 -1 7
-9z m2245 0 c-27 -12 -43 -12 -25 0 8 5 22 9 30 9 10 0 8 -3 -5 -9z m-835 -30
c0 8 3 11 6 7 3 -3 2 -12 -3 -21 -7 -13 -11 -12 -22 7 -13 20 -13 21 2 8 14
-11 17 -11 17 -1z m-1003 -62 c-3 -7 -5 -2 -5 12 0 14 2 19 5 13 2 -7 2 -19 0
-25z m-9 -39 c-3 -8 -7 -3 -11 10 -4 17 -3 21 5 13 5 -5 8 -16 6 -23z m939 6
c0 -8 -4 -12 -9 -9 -5 3 -6 10 -3 15 9 13 12 11 12 -6z m1710 -47 c-3 -7 -5
-2 -5 12 0 14 2 19 5 13 2 -7 2 -19 0 -25z m-3795 -245 c5 -7 5 -13 0 -17 -12
-7 -22 18 -21 47 1 21 2 21 6 2 3 -11 9 -25 15 -32z m12 -79 c3 -8 2 -12 -4
-9 -6 3 -10 10 -10 16 0 14 7 11 14 -7z m50 -62 c-4 -15 -6 -36 -5 -47 1 -16
0 -17 -8 -5 -6 10 -5 31 2 58 6 24 13 38 15 32 2 -6 1 -23 -4 -38z m-27 -4
c-3 -7 -5 -2 -5 12 0 14 2 19 5 13 2 -7 2 -19 0 -25z m48 -17 c-3 -10 8 -52
25 -94 16 -41 30 -86 30 -99 0 -13 7 -34 16 -46 9 -13 13 -26 10 -29 -3 -4 -6
0 -6 8 0 11 -2 11 -9 1 -5 -9 -12 1 -21 32 -7 24 -9 50 -4 57 5 8 2 11 -7 7
-12 -5 -14 1 -11 23 3 17 0 29 -7 29 -6 0 -11 -6 -11 -12 -1 -7 -7 2 -15 21
-8 18 -15 38 -14 45 0 6 5 -1 11 -17 5 -15 14 -25 18 -22 5 3 2 21 -6 41 -13
31 -12 74 2 74 3 0 3 -8 -1 -19z m115 -296 c0 -5 -5 -3 -10 5 -5 8 -10 20 -10
25 0 6 5 3 10 -5 5 -8 10 -19 10 -25z m4 -59 c-6 -16 -8 -17 -16 -2 -11 19 0
42 13 29 6 -6 7 -18 3 -27z m2101 -42 c-135 -126 -439 -353 -453 -339 -3 3 -3
6 -1 8 2 1 38 25 79 51 106 69 254 189 328 265 35 36 70 66 78 67 9 1 18 5 22
8 3 3 8 6 11 6 3 -1 -25 -30 -64 -66z m-1975 37 c0 -6 -4 -13 -10 -16 -5 -3
-10 -13 -10 -22 0 -13 2 -14 18 -2 15 13 16 12 3 -4 -11 -14 -11 -21 -3 -29 7
-7 12 -17 12 -22 0 -6 -10 4 -21 22 -14 21 -19 40 -15 57 6 24 26 36 26 16z
m-74 -48 c-3 -4 -6 -1 -6 7 0 10 -3 10 -14 1 -11 -9 -16 -9 -22 0 -4 8 -3 9 5
5 6 -4 14 0 18 9 6 16 7 16 15 0 6 -9 7 -19 4 -22z m-42 -29 c3 -8 2 -12 -4
-9 -6 3 -10 10 -10 16 0 14 7 11 14 -7z m24 -49 c-3 -3 -9 2 -12 12 -6 14 -5
15 5 6 7 -7 10 -15 7 -18z m142 -10 c7 -8 17 -12 22 -9 6 4 5 -3 -1 -15 -13
-24 -23 -28 -14 -6 3 9 2 15 -3 13 -5 -2 -10 1 -11 6 -1 5 -7 13 -15 17 -8 5
-9 9 -2 9 6 0 17 -7 24 -15z m-63 -10 c4 -4 3 -5 -3 -2 -7 4 -11 -3 -11 -20 0
-25 0 -26 13 -8 8 10 14 14 14 8 0 -7 -5 -15 -10 -18 -6 -4 -8 -11 -4 -16 3
-5 10 -6 16 -3 7 5 8 2 3 -6 -4 -7 -2 -16 6 -21 8 -5 9 -9 3 -9 -15 0 -58 62
-57 82 1 11 -3 16 -9 12 -6 -4 -8 -3 -5 4 8 12 32 10 44 -3z m-7 -86 c15 -28
5 -23 -15 7 -9 15 -12 23 -6 20 6 -4 16 -16 21 -27z m31 -46 c13 -16 12 -17
-3 -4 -10 7 -18 15 -18 17 0 8 8 3 21 -13z m51 -18 c3 0 9 -3 13 -7 4 -3 0 -5
-9 -4 -9 1 -22 8 -29 16 -10 10 -9 11 3 4 8 -5 18 -9 22 -9z m70 -59 c-7 -10
-8 -19 -3 -42 0 -4 7 -1 15 5 10 8 16 9 21 1 4 -6 1 -9 -7 -8 -7 2 -12 -5 -11
-16 0 -10 -2 -14 -6 -10 -3 5 -17 22 -31 37 -16 19 -20 27 -10 25 8 -2 14 2
13 8 -1 6 5 11 12 11 9 0 11 -5 7 -11z m-304 -31 c-3 -3 -9 2 -12 12 -6 14 -5
15 5 6 7 -7 10 -15 7 -18z m390 0 c-3 -3 -9 2 -12 12 -6 14 -5 15 5 6 7 -7 10
-15 7 -18z m2642 12 c0 -2 -10 -12 -22 -23 l-23 -19 19 23 c18 21 26 27 26 19z
m-2616 -33 c3 -8 2 -12 -4 -9 -6 3 -10 10 -10 16 0 14 7 11 14 -7z m2650 -36
c-70 -83 -280 -298 -329 -338 -16 -14 38 45 121 130 84 85 166 172 184 193 18
20 35 37 38 37 3 0 -3 -10 -14 -22z m-2702 -10 c-9 -9 -15 -9 -24 1 -11 10
-10 11 5 6 10 -5 17 -2 17 6 0 7 3 9 7 6 4 -4 1 -13 -5 -19z m153 -65 c38 -43
59 -69 46 -58 -27 23 -125 135 -119 135 3 0 36 -35 73 -77z m2445 63 c0 -2 -8
-10 -17 -17 -16 -13 -17 -12 -4 4 13 16 21 21 21 13z m-30 -39 c0 -1 -60 -61
-132 -132 l-133 -130 130 133 c120 123 135 137 135 129z m-2789 -74 c13 -16
12 -17 -3 -4 -17 13 -22 21 -14 21 2 0 10 -8 17 -17z m489 -68 c19 -19 32 -35
29 -35 -3 0 -20 16 -39 35 -19 19 -32 35 -29 35 3 0 20 -16 39 -35z m-425 -5
c10 -11 16 -20 13 -20 -3 0 -13 9 -23 20 -10 11 -16 20 -13 20 3 0 13 -9 23
-20z m538 -99 c-2 -3 -16 8 -31 24 l-27 28 31 -24 c17 -13 30 -26 27 -28z
m-458 9 c10 -11 16 -20 13 -20 -3 0 -13 9 -23 20 -10 11 -16 20 -13 20 3 0 13
-9 23 -20z m496 -37 c13 -16 12 -17 -3 -4 -17 13 -22 21 -14 21 2 0 10 -8 17
-17z m-416 -43 c10 -11 16 -20 13 -20 -3 0 -13 9 -23 20 -10 11 -16 20 -13 20
3 0 13 -9 23 -20z m2245 16 c0 -2 -8 -10 -17 -17 -16 -13 -17 -12 -4 4 13 16
21 21 21 13z m76 -31 c-9 -9 -16 -13 -16 -8 0 12 22 34 28 28 2 -2 -3 -11 -12
-20z m-36 -29 c-38 -37 -155 -124 -160 -119 -3 3 6 12 19 21 13 9 51 38 84 64
57 46 88 64 57 34z m-1749 -13 c13 -16 12 -17 -3 -4 -17 13 -22 21 -14 21 2 0
10 -8 17 -17z m1599 -17 c0 -2 -8 -10 -17 -17 -16 -13 -17 -12 -4 4 13 16 21
21 21 13z m-1505 -56 c10 -11 16 -20 13 -20 -3 0 -13 9 -23 20 -10 11 -16 20
-13 20 3 0 13 -9 23 -20z m46 -37 c13 -16 12 -17 -3 -4 -17 13 -22 21 -14 21
2 0 10 -8 17 -17z m1432 -8 c-11 -29 -493 -352 -493 -330 0 3 -10 -4 -22 -15
-28 -26 -78 -57 -98 -62 -8 -2 -17 -6 -20 -10 -11 -15 -133 -78 -139 -72 -3 4
-1 8 4 11 17 6 239 139 339 203 13 8 48 30 79 47 49 30 156 100 289 192 26 18
50 36 53 42 10 15 15 11 8 -6z m-113 1 c0 -2 -8 -10 -17 -17 -16 -13 -17 -12
-4 4 13 16 21 21 21 13z m-1211 -63 c2 -2 0 -3 -6 -3 -6 0 -21 9 -34 21 l-24
20 30 -17 c17 -10 32 -19 34 -21z m1171 33 c0 -4 -184 -124 -255 -166 -82 -48
-21 -5 112 81 144 92 143 91 143 85z m-1040 -122 c0 -2 -9 0 -20 6 -11 6 -20
13 -20 16 0 2 9 0 20 -6 11 -6 20 -13 20 -16z m100 -60 c0 -2 -13 2 -30 11
-16 9 -30 18 -30 21 0 2 14 -2 30 -11 17 -9 30 -18 30 -21z m640 -8 c0 -2 -22
-18 -50 -35 -27 -17 -50 -29 -50 -26 0 4 90 64 98 65 1 0 2 -2 2 -4z m-500
-82 c0 -2 -9 0 -20 6 -11 6 -20 13 -20 16 0 2 9 0 20 -6 11 -6 20 -13 20 -16z
m390 12 c0 -3 -101 -70 -160 -105 -58 -34 1 11 75 58 81 52 85 54 85 47z"/>
<path d="M4117 6739 c7 -7 15 -10 18 -7 3 3 -2 9 -12 12 -14 6 -15 5 -6 -5z"/>
<path d="M4173 6695 c0 -7 7 -11 15 -7 10 3 13 1 8 -6 -4 -7 -5 -12 -2 -12 2
0 13 -3 23 -7 16 -6 16 -5 4 11 -21 26 -48 38 -48 21z"/>
<path d="M3885 6179 c29 -25 33 -34 24 -46 -10 -11 -9 -17 4 -29 10 -7 13 -9
7 -2 -15 18 -12 32 4 19 11 -10 14 -9 12 4 -2 17 -65 85 -78 85 -5 0 7 -14 27
-31z"/>
<path d="M3830 6162 c0 -5 7 -15 15 -22 16 -13 21 -35 7 -26 -5 3 -9 -1 -9 -8
0 -8 7 -13 16 -11 24 4 35 -6 20 -17 -10 -6 -6 -7 11 -3 24 6 24 5 6 -9 -17
-13 -17 -16 -4 -16 9 0 19 5 21 10 3 6 4 5 3 -2 -1 -7 -11 -15 -22 -16 -30 -6
-36 -18 -17 -33 16 -13 17 -12 5 2 -11 15 -8 17 23 21 19 2 35 2 35 -2 -1 -13
-27 -38 -45 -43 -19 -4 -19 -5 1 -6 24 -1 39 -27 22 -37 -5 -4 -14 0 -19 7 -7
11 -9 12 -9 1 0 -8 9 -16 20 -19 16 -4 18 -8 9 -19 -8 -10 -8 -14 0 -14 11 0
15 13 12 37 -1 6 3 14 9 18 5 3 10 24 10 45 0 30 -8 48 -31 74 -28 32 -35 48
-38 81 -1 6 -5 4 -10 -3 -6 -11 -11 -10 -25 3 -9 9 -16 12 -16 7z"/>
<path d="M3967 6109 c12 -12 24 -21 27 -18 2 2 -8 13 -22 23 l-27 19 22 -24z"/>
<path d="M4052 6080 c-6 -95 -62 -214 -126 -267 -31 -25 -43 -29 -87 -27 -48
3 -51 1 -36 -13 37 -37 117 -6 182 69 50 59 77 137 72 212 -2 34 -4 45 -5 26z
m-189 -307 c-7 -2 -21 -2 -30 0 -10 3 -4 5 12 5 17 0 24 -2 18 -5z"/>
<path d="M3756 6065 c-9 -26 -7 -32 5 -12 6 10 9 21 6 23 -2 3 -7 -2 -11 -11z"/>
<path d="M3977 6074 c-3 -4 -2 -14 3 -24 25 -47 -29 -174 -69 -163 -12 3 -27
-2 -36 -11 -9 -9 -21 -13 -27 -10 -6 4 -8 2 -5 -4 8 -12 23 -11 57 7 l25 12
-25 -20 c-30 -25 -72 -27 -105 -5 -14 9 -25 14 -25 11 0 -15 73 -48 95 -43 57
15 133 118 136 186 0 22 1 23 8 6 7 -18 8 -18 14 -2 11 28 8 35 -13 31 -18 -3
-25 5 -21 28 1 9 -4 9 -12 1z"/>
<path d="M3826 5992 c-2 -4 4 -8 14 -8 10 0 16 4 14 8 -3 4 -9 8 -14 8 -5 0
-11 -4 -14 -8z"/>
<path d="M4006 5975 c-9 -26 -7 -32 5 -12 6 10 9 21 6 23 -2 3 -7 -2 -11 -11z"/>
<path d="M3790 5965 c-11 -13 -11 -18 0 -28 10 -9 11 -9 6 1 -4 7 -2 19 4 27
7 8 10 15 7 15 -2 0 -10 -7 -17 -15z"/>
<path d="M3865 5951 c-3 -5 -2 -12 3 -15 5 -3 9 1 9 9 0 17 -3 19 -12 6z"/>
<path d="M3986 5923 c-6 -14 -5 -15 5 -6 7 7 10 15 7 18 -3 3 -9 -2 -12 -12z"/>
<path d="M3743 5905 c0 -8 3 -13 5 -10 3 3 12 -1 21 -7 10 -8 9 -4 -3 10 -23
26 -23 26 -23 7z"/>
<path d="M3854 5903 c2 -10 6 -17 9 -15 4 1 14 5 22 8 8 3 12 11 9 16 -4 6
-10 5 -15 -3 -6 -10 -9 -11 -9 -1 0 6 -4 12 -9 12 -5 0 -8 -8 -7 -17z"/>
<path d="M3951 5866 l-24 -31 28 27 c16 15 27 29 24 31 -2 3 -15 -10 -28 -27z"/>
<path d="M3720 5846 c0 -2 8 -10 18 -17 15 -13 16 -12 3 4 -13 16 -21 21 -21
13z"/>
<path d="M3875 5810 c-3 -6 1 -7 9 -4 18 7 21 14 7 14 -6 0 -13 -4 -16 -10z"/>
<path d="M5146 5781 c-3 -5 0 -11 7 -14 8 -3 14 1 14 9 0 16 -13 19 -21 5z"/>
<path d="M5290 5720 c8 -5 22 -10 30 -10 13 0 13 1 0 10 -8 5 -22 10 -30 10
-13 0 -13 -1 0 -10z"/>
<path d="M5335 5690 c-3 -5 1 -10 9 -10 9 0 16 5 16 10 0 6 -4 10 -9 10 -6 0
-13 -4 -16 -10z"/>
<path d="M5288 5683 c7 -3 16 -2 19 1 4 3 -2 6 -13 5 -11 0 -14 -3 -6 -6z"/>
<path d="M2492 4480 c0 -14 2 -19 5 -12 2 6 2 18 0 25 -3 6 -5 1 -5 -13z"/>
<path d="M3001 4494 c0 -11 3 -14 6 -6 3 7 2 16 -1 19 -3 4 -6 -2 -5 -13z"/>
<path d="M4492 4380 c0 -14 2 -19 5 -12 2 6 2 18 0 25 -3 6 -5 1 -5 -13z"/>
<path d="M4501 3524 c0 -11 3 -14 6 -6 3 7 2 16 -1 19 -3 4 -6 -2 -5 -13z"/>
<path d="M4491 3454 c0 -11 3 -14 6 -6 3 7 2 16 -1 19 -3 4 -6 -2 -5 -13z"/>
<path d="M3261 3294 c0 -11 3 -14 6 -6 3 7 2 16 -1 19 -3 4 -6 -2 -5 -13z"/>
<path d="M3272 3230 c0 -14 2 -19 5 -12 2 6 2 18 0 25 -3 6 -5 1 -5 -13z"/>
<path d="M2550 4422 c0 -10 -4 -22 -9 -27 -6 -6 -4 -14 3 -21 10 -9 13 -3 14
27 1 21 0 39 -3 39 -3 0 -5 -8 -5 -18z"/>
<path d="M3685 3954 c0 -13 3 -24 8 -24 4 0 7 9 7 19 0 11 -3 22 -7 24 -5 3
-8 -6 -8 -19z"/>
<path d="M3758 3923 c6 -2 18 -2 25 0 6 3 1 5 -13 5 -14 0 -19 -2 -12 -5z"/>
<path d="M3691 3904 c0 -11 3 -14 6 -6 3 7 2 16 -1 19 -3 4 -6 -2 -5 -13z"/>
<path d="M3661 3496 c-8 -10 -9 -16 -1 -21 6 -3 7 -11 4 -17 -4 -7 -2 -8 5 -4
8 6 9 12 2 20 -7 9 -7 16 1 24 7 7 9 12 6 12 -3 0 -11 -6 -17 -14z"/>
<path d="M3698 3433 c7 -3 16 -2 19 1 4 3 -2 6 -13 5 -11 0 -14 -3 -6 -6z"/>
<path d="M4003 3434 l-28 -25 33 22 c17 13 32 24 32 26 0 8 -11 1 -37 -23z"/>
<path d="M4005 6758 c0 -19 6 -33 15 -35 13 -4 13 -3 0 6 -13 10 -13 12 0 21
13 8 13 11 0 24 -13 14 -15 12 -15 -16z"/>
<path d="M3632 6768 c2 -7 -5 -13 -14 -13 -9 0 -19 -4 -22 -8 -3 -4 -3 -5 1
-2 3 3 12 0 20 -6 7 -6 13 -7 13 -2 0 5 9 9 20 10 13 1 18 -2 14 -9 -4 -7 -2
-8 5 -4 14 9 7 22 -20 36 -15 8 -19 8 -17 -2z"/>
<path d="M3554 6708 l-19 -23 23 19 c21 18 27 26 19 26 -2 0 -12 -10 -23 -22z"/>
<path d="M3799 6707 c15 -19 1 -30 -18 -14 -14 10 -14 10 -4 -4 7 -9 9 -20 5
-25 -4 -5 3 0 15 10 18 15 20 22 12 33 -6 7 -14 13 -16 13 -3 0 0 -6 6 -13z"/>
<path d="M3460 6690 c0 -5 5 -10 11 -10 5 0 7 5 4 10 -3 6 -8 10 -11 10 -2 0
-4 -4 -4 -10z"/>
<path d="M3410 6660 c-8 -5 -11 -12 -8 -16 4 -3 14 1 23 10 18 17 9 21 -15 6z"/>
<path d="M3668 6528 c-201 -150 -313 -223 -538 -351 -263 -150 -388 -210 -598
-288 -225 -84 -455 -141 -637 -158 -73 -8 -75 -8 -25 -10 176 -4 570 104 870
238 100 44 462 234 485 254 6 4 75 48 154 98 151 93 359 239 424 296 20 18 43
33 51 33 7 0 53 -32 102 -71 59 -46 72 -55 39 -24 -69 65 -125 105 -146 105
-9 0 -91 -55 -181 -122z"/>
<path d="M3725 6629 c-4 -6 -13 -8 -21 -5 -15 6 -29 -10 -15 -18 5 -3 20 3 32
14 13 11 21 19 17 20 -4 0 -10 -5 -13 -11z"/>
<path d="M3350 6620 c-8 -5 -11 -12 -8 -16 4 -3 14 1 23 10 18 17 9 21 -15 6z"/>
<path d="M4071 6468 c2 -2 18 -14 34 -28 l30 -25 -24 28 c-14 15 -29 27 -34
27 -6 0 -8 -1 -6 -2z"/>
<path d="M3025 6420 c-3 -5 -1 -10 4 -10 6 0 11 5 11 10 0 6 -2 10 -4 10 -3 0
-8 -4 -11 -10z"/>
<path d="M4454 6206 c11 -9 24 -16 30 -16 12 0 7 5 -24 19 -24 11 -24 11 -6
-3z"/>
<path d="M1777 5668 c-16 -138 -27 -702 -19 -968 l9 -285 1 475 c2 514 14 809
35 822 9 6 8 8 -4 8 -12 0 -18 -13 -22 -52z"/>
<path d="M1582 4820 c0 -14 2 -19 5 -12 2 6 2 18 0 25 -3 6 -5 1 -5 -13z"/>
<path d="M1511 4664 c0 -11 3 -14 6 -6 3 7 2 16 -1 19 -3 4 -6 -2 -5 -13z"/>
</g>
</svg>
